<?xml version="1.0" standalone="no"?>
<!DOCTYPE svg PUBLIC "-//W3C//DTD SVG 20010904//EN"
 "http://www.w3.org/TR/2001/REC-SVG-20010904/DTD/svg10.dtd">
<svg version="1.0" xmlns="http://www.w3.org/2000/svg"
 width="2368.000000pt" height="1792.000000pt" viewBox="0 0 2368.000000 1792.000000"
 preserveAspectRatio="xMidYMid meet">
<metadata>
Created by potrace 1.16, written by Peter Selinger 2001-2019
</metadata>
<g transform="translate(0.000000,1792.000000) scale(0.100000,-0.100000)"
fill="#000000" stroke="none">
<path d="M6155 13469 c-481 -27 -998 -146 -1415 -326 -556 -240 -990 -534
-1421 -963 -786 -782 -1239 -1789 -1320 -2935 -21 -304 0 -725 51 -1030 150
-886 506 -1634 1091 -2292 284 -319 725 -677 1089 -883 52 -30 121 -69 153
-87 133 -76 409 -195 647 -279 417 -148 934 -234 1399 -234 476 0 976 88 1432
251 1116 398 2029 1210 2535 2254 212 437 346 885 413 1380 60 436 56 898 -10
1335 -129 851 -484 1627 -1037 2270 -93 107 -421 432 -527 521 -420 353 -949
648 -1465 815 -210 68 -523 140 -750 173 -212 30 -616 44 -865 30z m412 -345
c180 -26 335 -82 474 -170 21 -13 127 -75 236 -138 109 -63 252 -145 318 -183
127 -73 214 -122 280 -157 22 -12 42 -24 45 -28 3 -3 12 -8 20 -10 8 -2 21 -9
29 -16 7 -7 20 -11 28 -8 8 3 11 2 8 -4 -3 -5 7 -8 22 -6 33 3 83 -19 61 -27
-11 -5 8 -7 99 -12 11 0 28 -7 37 -14 10 -8 16 -9 16 -3 0 6 16 3 38 -8 72
-36 105 -50 119 -50 8 0 11 -4 8 -10 -3 -6 1 -7 10 -4 9 4 23 -3 36 -17 11
-13 27 -24 35 -25 18 -3 77 -62 87 -86 3 -10 15 -18 25 -18 21 0 56 -33 46
-43 -4 -3 5 -9 20 -13 14 -3 26 -10 26 -15 0 -5 7 -9 16 -9 8 0 12 -4 9 -10
-3 -5 6 -12 20 -16 26 -6 34 -29 13 -37 -7 -3 1 -6 17 -7 19 -2 23 -4 12 -7
-14 -4 -16 -8 -6 -19 6 -8 16 -14 20 -14 5 0 32 -15 59 -32 61 -41 169 -106
480 -291 135 -80 274 -166 310 -193 231 -170 376 -389 458 -693 l25 -96 8
-745 c9 -799 8 -770 19 -785 4 -5 6 -23 5 -40 -1 -16 0 -34 4 -40 13 -22 16
-146 5 -210 -3 -16 -6 -51 -7 -77 -1 -27 -5 -48 -8 -48 -3 0 -7 -34 -8 -75 -1
-41 -4 -85 -6 -97 -3 -12 -5 -265 -6 -563 0 -297 -5 -574 -10 -615 -11 -99
-39 -220 -52 -220 -5 0 -7 6 -4 14 6 15 -18 31 -40 27 -13 -2 -11 29 8 139 23
132 1 1566 -25 1608 -4 7 -3 12 2 12 5 0 9 7 9 15 0 8 -3 15 -7 15 -3 0 -6 9
-7 20 -1 11 2 20 6 20 10 0 10 -9 19 270 5 135 8 493 7 795 0 611 1 599 -71
793 -42 113 -83 185 -171 299 -98 127 -217 221 -428 338 -27 15 -97 54 -155
88 -120 69 -235 134 -300 170 -25 13 -78 43 -118 67 -41 23 -79 39 -88 36 -8
-3 -13 -2 -10 2 2 4 -7 12 -20 19 -13 6 -22 7 -18 2 3 -5 0 -9 -5 -9 -6 0 -11
5 -11 11 0 6 -9 8 -22 4 -16 -6 -20 -4 -15 8 4 11 -2 15 -21 15 -59 2 -67 3
-72 13 -6 9 -39 19 -67 21 -7 1 -10 5 -7 10 3 4 0 9 -5 9 -6 1 -14 3 -18 4 -5
2 -18 6 -30 10 -13 4 -23 11 -23 16 0 5 -3 8 -7 7 -15 -3 -63 14 -63 23 0 5
-6 9 -13 9 -19 0 -67 24 -67 33 0 5 -4 5 -10 2 -5 -3 -10 -1 -10 4 0 6 -6 11
-13 11 -8 0 -22 9 -32 20 -10 11 -25 20 -34 20 -22 1 -43 20 -61 55 -17 35
-56 75 -73 75 -8 0 -8 3 -2 8 6 4 11 13 10 20 0 15 -46 44 -425 271 -716 430
-717 431 -859 468 -71 19 -132 27 -234 30 -154 6 -247 -5 -372 -44 -104 -33
-171 -67 -411 -211 -189 -112 -272 -161 -486 -286 -51 -29 -183 -107 -293
-171 -246 -144 -257 -151 -325 -188 -30 -16 -61 -35 -68 -40 -10 -8 -16 -7
-21 1 -4 7 -12 8 -21 2 -19 -12 -33 -13 -25 -1 3 5 1 12 -4 15 -5 4 -12 2 -16
-3 -3 -6 -12 -8 -20 -4 -8 3 -15 0 -15 -6 0 -6 -4 -11 -10 -11 -18 0 -10 15
18 31 15 9 114 69 219 133 106 64 195 116 198 116 4 0 41 22 83 49 93 58 330
199 582 346 102 59 237 138 300 176 150 89 228 124 348 154 171 44 290 52 439
29z m-2152 -1044 c3 -5 -1 -10 -9 -10 -9 0 -16 5 -16 10 0 6 4 10 9 10 6 0 13
-4 16 -10z m60 0 c-3 -5 -11 -10 -16 -10 -6 0 -7 5 -4 10 3 6 11 10 16 10 6 0
7 -4 4 -10z m-130 -11 c11 -16 1 -19 -13 -3 -7 8 -8 14 -3 14 5 0 13 -5 16
-11z m95 -8 c0 -5 -7 -12 -16 -15 -14 -5 -15 -4 -4 9 14 17 20 19 20 6z m-110
-31 c0 -5 -2 -10 -4 -10 -3 0 -8 5 -11 10 -3 6 -1 10 4 10 6 0 11 -4 11 -10z
m65 0 c-3 -5 -16 -10 -28 -9 -21 0 -21 1 -2 9 28 12 37 12 30 0z m-110 -28
c-3 -3 -11 0 -18 7 -9 10 -8 11 6 5 10 -3 15 -9 12 -12z m65 4 c0 -3 -4 -8
-10 -11 -5 -3 -10 -1 -10 4 0 6 5 11 10 11 6 0 10 -2 10 -4z m2194 -30 c52
-30 90 -76 109 -131 13 -37 17 -39 108 -70 138 -46 270 -118 389 -213 75 -59
245 -227 283 -280 37 -51 31 -51 172 8 330 137 570 194 825 194 231 0 370 -48
501 -172 58 -54 78 -82 114 -156 66 -140 79 -208 72 -395 -6 -165 -18 -232
-68 -401 -69 -230 -180 -475 -336 -742 -77 -130 -272 -438 -303 -476 -14 -19
-22 -19 -136 -10 l-122 11 104 151 c343 500 553 930 624 1277 30 143 30 327 1
419 -40 129 -115 204 -251 252 -57 20 -82 23 -215 22 -123 -1 -173 -6 -278
-28 -363 -77 -819 -291 -1288 -603 -220 -146 -217 -139 -62 -146 212 -10 663
-66 824 -103 22 -5 31 0 55 33 16 21 32 40 37 41 4 2 7 11 7 19 0 19 -61 175
-101 257 -16 33 -29 61 -29 62 0 3 109 64 115 64 14 0 145 -302 145 -335 0
-11 12 -15 44 -15 56 0 139 -42 179 -92 16 -20 37 -65 46 -99 l17 -62 120 -41
c66 -23 150 -56 187 -73 65 -31 67 -33 57 -59 -15 -39 -43 -84 -52 -84 -5 0
-34 11 -66 24 -68 28 -270 96 -286 96 -6 -1 -28 -21 -49 -45 l-38 -45 30 -183
c40 -237 61 -437 61 -585 l0 -119 -57 -6 c-32 -3 -59 -4 -61 -2 -2 1 -7 74
-12 162 -11 183 -41 423 -73 590 l-23 116 -54 14 c-102 26 -164 85 -190 180
-7 26 -14 49 -14 50 -2 3 -279 49 -401 67 -115 17 -400 42 -593 51 l-133 6
-57 -42 c-84 -63 -288 -225 -355 -282 -37 -32 -62 -46 -68 -40 -18 18 -99 155
-98 166 0 7 45 50 100 96 55 46 98 85 96 88 -5 5 -318 -15 -351 -22 -10 -2
-59 19 -109 48 -87 49 -89 51 -61 59 59 14 303 39 444 43 286 10 252 0 402
113 232 173 549 376 786 502 67 35 122 69 122 75 0 5 -28 44 -63 84 -122 147
-320 295 -480 362 -112 47 -132 48 -151 10 -49 -93 -185 -143 -298 -109 -39
11 -121 82 -144 123 -10 19 -14 19 -59 7 -138 -37 -312 -147 -476 -301 l-86
-80 -38 55 -38 55 74 73 c158 154 389 293 560 336 41 10 46 15 58 54 17 59 61
109 123 141 46 23 62 26 120 22 48 -3 79 -11 112 -31z m-1924 -856 c0 -154 2
-280 5 -280 4 0 122 51 263 113 141 63 273 120 292 127 19 7 41 18 48 23 19
15 25 5 82 -128 28 -66 54 -125 56 -132 6 -13 -37 -34 -216 -108 -30 -12 -155
-66 -277 -119 -122 -53 -226 -96 -231 -96 -6 0 -13 -7 -16 -16 -8 -20 -8 -419
0 -427 3 -3 34 17 67 44 80 65 180 114 287 140 71 18 103 21 200 16 294 -13
507 -154 613 -405 68 -160 69 -171 77 -697 5 -315 12 -497 20 -530 6 -27 32
-92 57 -144 38 -81 58 -108 137 -186 126 -126 237 -182 409 -206 110 -15 228
0 344 43 150 57 244 133 386 311 227 284 546 438 912 437 338 -1 603 -108 827
-333 86 -87 89 -91 71 -108 -10 -9 -71 -64 -137 -122 l-118 -105 -66 69 c-77
83 -172 147 -273 188 -111 45 -161 53 -304 53 -159 0 -249 -21 -373 -87 -114
-61 -166 -106 -276 -245 -230 -287 -476 -430 -792 -460 -509 -48 -962 241
-1123 717 -52 153 -58 224 -59 684 -1 341 -4 429 -17 484 -31 133 -93 212
-214 268 -56 27 -80 32 -163 35 -123 5 -209 -18 -294 -81 -95 -70 -150 -157
-185 -295 -18 -70 -19 -114 -19 -614 l0 -538 -177 2 -178 3 0 968 c0 566 -4
967 -9 967 -5 0 -85 -34 -179 -76 -93 -42 -200 -88 -239 -104 l-69 -28 -8 21
c-5 12 -29 73 -54 134 -25 62 -42 115 -39 117 15 8 315 143 437 195 72 31 136
60 143 64 9 6 12 90 12 361 0 194 3 356 7 359 3 4 84 7 180 7 l173 0 0 -280z
m2146 -1275 c234 -40 411 -133 586 -306 l90 -89 -58 -52 c-32 -29 -91 -83
-132 -120 -40 -38 -77 -68 -82 -68 -4 0 -27 22 -50 50 -79 94 -218 182 -342
216 -29 8 -98 17 -153 21 -171 10 -318 -32 -461 -131 l-64 -45 0 102 c0 56 -5
141 -11 187 -17 127 -18 121 26 147 150 85 440 124 651 88z m-2945 -62 c10
-11 10 -14 2 -9 -7 4 -13 2 -13 -3 0 -6 5 -11 10 -11 6 0 9 -3 8 -7 -2 -5 1
-9 6 -10 5 0 13 -8 18 -17 5 -9 15 -13 21 -9 7 4 6 -1 -2 -10 -14 -18 -18 -19
-22 -2 -1 6 -10 16 -20 23 -15 10 -23 10 -41 1 -17 -9 -23 -9 -26 1 -3 9 -6 9
-13 -1 -7 -11 -9 -10 -9 4 0 15 5 17 30 12 24 -5 29 -4 24 9 -3 8 -13 13 -22
10 -9 -2 -5 2 11 9 15 7 24 16 21 20 -4 4 -5 7 -2 7 3 0 12 -8 19 -17z m5336
-62 c156 -119 309 -291 368 -418 59 -123 77 -193 82 -310 4 -86 1 -129 -12
-185 -31 -128 -91 -250 -176 -358 -37 -47 -42 -50 -58 -36 -9 9 -27 33 -39 54
l-21 38 36 50 c54 75 110 198 129 282 21 94 14 211 -17 303 -48 141 -166 303
-307 422 -47 39 -98 83 -114 97 l-29 25 30 48 c17 26 35 47 40 47 5 0 45 -27
88 -59z m-5331 -17 c-3 -9 -1 -12 4 -9 6 3 10 2 10 -3 0 -6 -7 -12 -15 -16 -8
-3 -15 -1 -15 5 0 6 -4 8 -8 5 -4 -2 -8 3 -8 13 0 10 8 18 19 18 13 1 17 -3
13 -13z m1448 -274 l6 -135 -81 -90 c-44 -49 -129 -148 -187 -220 -58 -71
-111 -133 -116 -137 -21 -15 -28 7 -22 76 3 39 6 103 6 141 l1 70 110 130
c126 147 271 307 274 303 2 -2 6 -64 9 -138z m-2534 106 c0 -3 -4 -8 -10 -11
-5 -3 -10 -1 -10 4 0 6 5 11 10 11 6 0 10 -2 10 -4z m19 -76 c-6 -5 -3 -9 9
-12 15 -4 18 -1 15 13 -3 11 0 19 6 19 6 0 11 -17 11 -37 0 -120 24 -549 33
-608 2 -11 0 -29 -4 -40 -8 -24 -16 -97 -25 -244 -7 -109 -24 -152 -51 -130
-7 6 -10 15 -7 20 3 5 -2 6 -10 3 -12 -5 -15 12 -18 108 -5 159 -5 711 -1 845
l4 112 25 -21 c15 -14 20 -24 13 -28z m1851 -1291 c261 -24 489 -102 722 -246
151 -93 276 -198 578 -487 179 -171 363 -333 490 -431 283 -216 606 -367 901
-421 169 -30 531 -18 662 22 28 9 18 13 -74 29 -218 38 -391 129 -566 298
-151 146 -255 320 -308 517 -33 124 -32 126 13 141 68 22 180 77 251 123 l70
45 6 -67 c22 -216 101 -381 249 -519 75 -70 204 -146 301 -176 176 -56 402
-41 572 38 185 86 302 208 372 390 17 43 25 77 20 81 -5 3 -78 5 -162 4 -84
-1 -245 -2 -359 -1 l-208 1 1 164 c0 141 2 165 16 170 20 8 1092 7 1121 -1 20
-5 22 -12 22 -72 0 -82 -24 -243 -50 -338 -63 -230 -237 -512 -473 -767 -317
-341 -751 -604 -1150 -696 -414 -95 -853 -52 -1244 122 -68 30 -113 56 -113
65 0 8 -4 11 -10 8 -5 -3 -31 6 -57 21 -25 16 -41 30 -35 32 6 2 23 -4 39 -13
l28 -17 -24 21 c-14 12 -34 21 -46 19 -23 -3 -120 55 -242 146 -60 44 -82 66
-79 79 4 14 2 16 -9 7 -11 -9 -17 -7 -27 9 -7 12 -18 21 -24 21 -6 0 -18 8
-25 17 -8 9 -9 14 -3 10 7 -4 12 2 12 18 0 14 -5 25 -10 25 -5 0 -6 -4 -3 -10
3 -5 1 -10 -5 -10 -7 0 -9 8 -5 20 4 12 1 28 -7 37 -9 12 -9 15 0 9 6 -4 12
-3 12 3 0 5 -6 12 -12 14 -9 4 -8 6 3 6 8 1 20 -4 25 -9 8 -8 15 -5 25 7 12
16 12 17 -2 6 -9 -7 -19 -10 -22 -6 -11 10 -8 21 6 26 6 2 3 3 -8 1 -10 -2
-27 4 -37 13 -10 8 -26 13 -38 10 -13 -3 -20 0 -20 9 0 8 -10 14 -26 14 -14 0
-23 4 -20 8 3 5 -1 9 -9 9 -8 0 -11 -5 -8 -10 4 -6 -5 -8 -21 -5 -20 4 -26 2
-22 -9 11 -27 -28 5 -123 100 -93 94 -93 95 -70 108 13 7 27 12 31 11 4 -1 4
6 1 16 -3 9 -3 14 2 10 12 -11 35 11 28 28 -3 8 3 17 13 21 25 9 36 26 21 35
-6 4 -9 9 -6 12 6 6 299 -262 298 -272 -4 -23 3 -42 14 -40 6 2 12 -4 12 -13
0 -23 34 -53 64 -56 24 -3 23 -1 -17 34 -23 21 -42 42 -42 47 0 4 30 -19 68
-51 176 -156 405 -315 557 -387 186 -89 423 -152 629 -166 329 -22 625 36 921
181 217 106 241 132 81 89 -176 -48 -321 -63 -528 -57 -208 5 -317 24 -507 86
-403 133 -746 361 -1216 812 -500 480 -683 601 -1025 680 -125 29 -377 37
-495 15 -352 -66 -509 -131 -743 -308 -57 -44 -115 -84 -129 -89 -36 -14 -93
16 -117 62 -18 32 -18 41 -7 78 10 36 26 52 111 115 249 186 477 294 730 345
185 38 316 46 490 30z m-480 -322 c0 9 7 7 20 -4 11 -10 20 -20 20 -23 0 -3
-9 -6 -20 -7 -11 -1 -20 3 -20 9 0 6 -10 3 -22 -8 -22 -19 -22 -19 -8 0 14 18
13 19 -3 13 -12 -4 -16 -3 -11 4 4 8 -1 9 -15 4 -11 -3 -21 -4 -21 -1 0 12 65
23 72 12 5 -8 8 -7 8 1z m74 -32 c-9 -22 -44 -40 -44 -23 0 10 -2 10 -9 -1 -6
-9 -11 -10 -15 -2 -7 11 5 15 32 12 7 -1 15 5 18 14 3 8 10 15 15 15 4 0 6 -7
3 -15z m394 -271 c17 -3 33 -13 36 -21 4 -9 2 -11 -7 -6 -18 11 -36 12 -43 2
-3 -5 2 -9 10 -9 9 0 16 -5 16 -12 0 -6 -3 -8 -6 -5 -4 3 -15 2 -25 -4 -15 -7
-17 -6 -13 6 4 8 1 15 -6 15 -6 0 -9 -4 -5 -9 3 -5 -6 -21 -19 -36 -20 -22
-26 -24 -38 -12 -7 7 -18 12 -24 10 -7 -2 -18 3 -26 11 -8 8 -20 11 -27 6 -13
-7 -61 9 -61 21 0 3 14 6 31 7 27 1 29 -1 17 -16 -12 -15 -11 -16 5 -3 25 19
21 34 -8 29 -13 -3 -26 -1 -27 4 -2 5 -11 10 -20 12 -10 1 -21 5 -24 9 -9 9
222 9 264 1z m-248 -40 c0 -8 -5 -12 -10 -9 -6 4 -8 11 -5 16 9 14 15 11 15
-7z m2314 -80 c-60 -47 -130 -102 -157 -121 l-47 -35 -48 30 c-26 17 -62 46
-80 65 l-33 34 73 56 73 56 164 1 164 0 -109 -86z m-1749 18 c-3 -3 -11 0 -18
7 -9 10 -8 11 6 5 10 -3 15 -9 12 -12z m91 -37 c67 -36 234 -156 267 -193 15
-16 15 -20 4 -25 -8 -3 -27 -4 -41 -3 -16 2 -25 -1 -23 -8 2 -6 10 -11 18 -11
9 0 23 -7 32 -17 15 -15 15 -17 0 -23 -11 -3 -22 0 -29 9 -12 17 -29 22 -19 6
3 -5 0 -11 -7 -12 -41 -5 -66 -3 -65 5 1 5 -4 12 -12 15 -10 3 -12 0 -8 -12 4
-10 1 -16 -8 -16 -8 0 -15 6 -16 13 0 6 -4 4 -7 -6 -7 -16 -12 -14 -50 14 -23
17 -39 36 -35 41 3 7 1 8 -6 4 -11 -7 -82 30 -89 46 -2 4 -9 8 -15 8 -7 0 -28
10 -47 21 -32 20 -33 22 -15 35 10 8 13 15 7 15 -7 1 -17 2 -24 3 -6 0 -13 6
-15 13 -3 8 6 10 26 8 17 -2 34 1 37 7 5 7 2 8 -7 3 -12 -8 -12 -6 0 8 7 9 10
17 5 18 -5 0 5 7 21 14 19 9 24 14 13 15 -19 0 -25 19 -8 21 6 1 14 2 19 3 5
0 13 4 17 9 10 10 6 11 80 -28z m349 -265 c3 -6 -1 -7 -9 -4 -18 7 -21 14 -7
14 6 0 13 -4 16 -10z m4679 -18 c2 -4 -7 -8 -20 -8 -13 -1 -24 1 -24 5 0 9 38
12 44 3z m-47 -64 c-3 -7 -5 -2 -5 12 0 14 2 19 5 13 2 -7 2 -19 0 -25z m68
15 c-4 -10 -8 -23 -9 -30 -1 -7 -6 -16 -11 -20 -4 -4 -5 3 -1 17 4 14 8 31 8
38 1 6 6 12 11 12 5 0 6 -8 2 -17z m-120 -193 c3 -5 -1 -10 -10 -10 -9 0 -13
5 -10 10 3 6 8 10 10 10 2 0 7 -4 10 -10z m-41 -15 c-4 -8 -10 -15 -15 -15 -5
0 -9 -8 -9 -17 0 -14 2 -15 9 -4 6 9 18 11 35 7 17 -4 26 -2 26 5 0 7 3 10 6
6 19 -19 -175 -265 -198 -250 -6 3 -8 2 -5 -4 4 -6 -6 -21 -21 -34 -15 -13
-24 -20 -20 -15 4 5 3 15 -2 22 -6 6 -9 17 -8 24 2 7 -4 15 -12 17 -13 4 -13
3 0 -6 13 -10 13 -11 0 -12 -8 -1 -19 -1 -25 0 -5 1 -1 -6 10 -15 15 -13 16
-15 3 -11 -9 3 -19 1 -21 -6 -2 -7 -4 -1 -4 13 0 18 18 45 63 90 35 36 90 100
121 143 53 72 80 97 67 62z m-4599 -265 c25 -26 27 -32 15 -40 -8 -5 -20 -10
-26 -10 -15 0 -39 29 -31 37 4 3 2 14 -4 24 -16 31 13 23 46 -11z m422 15 c0
-8 -4 -12 -9 -9 -5 3 -6 10 -3 15 9 13 12 11 12 -6z m-473 -13 c3 -5 -1 -9 -9
-9 -8 0 -15 4 -15 9 0 4 4 8 9 8 6 0 12 -4 15 -8z m14 -58 c-4 -3 -12 5 -18
18 -12 22 -12 22 6 6 10 -10 15 -20 12 -24z m4012 -188 c0 -2 -7 -7 -16 -10
-8 -3 -12 -2 -9 4 6 10 25 14 25 6z m-60 -47 c0 -8 4 -8 14 0 11 9 16 9 22 -1
4 -7 4 -10 0 -6 -5 4 -14 2 -21 -5 -10 -9 -9 -14 4 -24 14 -11 13 -14 -9 -30
-13 -10 -54 -34 -90 -54 -36 -20 -123 -71 -195 -114 -370 -221 -475 -287 -470
-295 3 -5 -9 -19 -27 -31 -18 -13 -40 -31 -49 -41 -9 -10 -18 -15 -21 -13 -3
3 -11 -1 -18 -10 -7 -8 -17 -15 -22 -15 -5 0 -16 -7 -24 -15 -15 -15 -80 -36
-124 -40 -14 -2 -108 -49 -209 -105 -101 -57 -193 -103 -204 -104 -12 -1 -21
6 -23 17 -1 9 2 17 8 17 6 0 5 6 -2 15 -15 18 -18 15 45 53 243 145 335 206
341 225 3 9 12 17 20 17 8 0 14 5 14 10 0 6 6 10 14 10 7 0 19 7 26 15 7 9 18
14 25 11 6 -2 17 5 23 15 7 11 23 19 40 19 38 0 134 51 542 288 190 111 351
201 358 202 6 0 12 -5 12 -11z m60 -28 c0 -17 -15 -19 -28 -5 -11 12 -9 14 8
14 11 0 20 -4 20 -9z"/>
<path d="M4538 12143 c7 -3 16 -2 19 1 4 3 -2 6 -13 5 -11 0 -14 -3 -6 -6z"/>
<path d="M5730 6711 c-8 -6 -18 -7 -22 -5 -4 3 -8 0 -8 -5 0 -6 7 -11 15 -11
7 0 19 -8 24 -17 10 -17 10 -17 11 1 0 15 3 16 15 6 20 -17 20 4 -1 24 -18 19
-15 18 -34 7z"/>
<path d="M5820 6620 c-9 -6 -10 -10 -3 -10 6 0 15 5 18 10 8 12 4 12 -15 0z"/>
<path d="M5777 6583 c-4 -6 0 -13 8 -17 8 -3 17 0 21 6 4 6 3 8 -4 4 -5 -3
-12 -1 -14 6 -3 8 -6 9 -11 1z"/>
<path d="M6248 6183 c7 -3 16 -2 19 1 4 3 -2 6 -13 5 -11 0 -14 -3 -6 -6z"/>
<path d="M4510 7470 c-9 -6 -10 -10 -3 -10 6 0 15 5 18 10 8 12 4 12 -15 0z"/>
<path d="M4921 7244 c0 -11 3 -14 6 -6 3 7 2 16 -1 19 -3 4 -6 -2 -5 -13z"/>
<path d="M4967 7209 c7 -7 15 -10 18 -7 3 3 -2 9 -12 12 -14 6 -15 5 -6 -5z"/>
<path d="M9708 6573 c7 -3 16 -2 19 1 4 3 -2 6 -13 5 -11 0 -14 -3 -6 -6z"/>
<path d="M16916 10659 c-180 -30 -339 -136 -414 -276 -49 -93 -72 -196 -72
-327 0 -179 39 -295 135 -403 73 -83 168 -138 393 -230 228 -92 255 -107 305
-162 97 -107 86 -317 -20 -400 -38 -31 -127 -54 -187 -49 -146 12 -223 112
-228 297 l-2 71 -215 0 -214 0 7 -110 c12 -189 54 -304 150 -408 95 -101 220
-152 421 -172 117 -11 202 -6 331 20 237 47 402 203 449 426 21 100 19 264 -4
357 -36 139 -89 217 -205 298 -86 61 -142 90 -317 165 -254 108 -313 144 -350
217 -41 78 -33 218 14 289 49 71 160 103 260 74 91 -26 140 -101 155 -236 l7
-65 198 -3 197 -2 0 77 c-1 290 -169 495 -449 547 -88 17 -261 19 -345 5z"/>
<path d="M19210 10656 c-298 -63 -454 -261 -512 -651 -20 -138 -17 -767 5
-902 55 -341 217 -540 488 -600 109 -24 331 -21 430 5 221 59 349 183 413 403
27 96 46 231 46 337 l0 72 -209 0 -208 0 -7 -37 c-3 -21 -6 -57 -6 -79 0 -65
-29 -213 -51 -263 -39 -88 -103 -130 -199 -131 -126 0 -200 54 -238 175 -35
111 -43 191 -49 500 -8 399 10 605 62 720 43 94 100 135 202 143 54 4 70 1
118 -22 91 -45 131 -135 142 -318 l6 -108 215 0 215 0 -7 115 c-8 139 -42 282
-88 367 -63 120 -179 213 -323 258 -89 29 -341 37 -445 16z"/>
<path d="M20725 10655 c-104 -22 -219 -82 -293 -155 -111 -110 -162 -251 -162
-450 0 -185 46 -308 154 -415 84 -84 163 -129 392 -221 114 -46 214 -94 242
-114 154 -116 146 -378 -14 -460 -67 -34 -188 -35 -252 -2 -82 43 -123 132
-126 273 l-1 69 -214 0 -214 0 6 -112 c11 -188 52 -298 152 -406 96 -104 220
-154 422 -172 183 -16 357 10 489 75 173 84 266 226 295 450 19 145 -3 291
-61 404 -27 54 -109 142 -176 188 -46 33 -178 97 -337 164 -168 71 -219 99
-269 147 -99 95 -87 316 21 389 103 70 261 45 320 -50 23 -37 51 -144 51 -194
l0 -33 201 0 202 0 -7 104 c-7 112 -24 183 -63 259 -54 108 -169 199 -307 243
-69 23 -103 27 -231 30 -104 2 -171 -1 -220 -11z"/>
<path d="M13290 9583 l0 -1053 163 -1 c89 0 182 -1 207 -2 l45 -2 5 465 5 465
258 3 257 2 2 -417 c1 -230 1 -439 0 -465 l-2 -47 158 -3 c86 -2 183 -2 215 0
l57 3 0 1050 -1 1049 -199 2 c-110 0 -206 1 -212 2 -10 1 -13 -85 -15 -394 -1
-217 -2 -401 -2 -408 -1 -10 -56 -12 -258 -10 l-258 3 -3 402 -2 402 -210 3
-210 3 0 -1052z"/>
<path d="M14814 10620 c2 -8 41 -98 86 -200 44 -102 148 -340 230 -530 82
-190 169 -391 194 -446 l45 -102 1 -403 c0 -221 2 -404 3 -406 3 -2 346 -6
395 -4 l22 1 0 411 0 410 86 197 c47 108 101 231 119 272 127 290 313 723 342
798 4 9 -45 12 -224 12 l-230 0 -65 -177 c-36 -98 -103 -282 -149 -410 -46
-128 -87 -229 -90 -225 -4 4 -37 93 -74 197 -38 105 -93 258 -123 340 -29 83
-63 177 -74 210 -12 33 -22 62 -24 64 -2 2 -109 4 -239 5 -206 1 -235 -1 -231
-14z"/>
<path d="M11732 9578 l3 -1053 210 1 210 1 3 416 2 417 184 0 c265 0 386 27
505 115 62 46 137 142 169 216 55 128 70 371 32 521 -40 160 -132 285 -258
351 -124 66 -137 67 -624 67 l-438 0 2 -1052z m763 718 c82 -35 129 -110 147
-234 23 -159 -28 -301 -127 -352 -45 -23 -62 -25 -202 -28 l-153 -4 0 314 c0
173 3 318 8 322 4 5 70 6 147 4 102 -4 151 -9 180 -22z"/>
<path d="M18002 9578 l3 -1053 205 2 205 2 3 1050 2 1051 -210 0 -210 0 2
-1052z"/>
<path d="M11910 8071 c-128 -28 -190 -102 -193 -229 -2 -122 40 -171 206 -236
108 -43 135 -59 148 -94 16 -40 -5 -98 -41 -117 -78 -40 -160 8 -160 95 l0 30
-86 0 -87 0 7 -52 c19 -147 105 -213 276 -211 176 2 270 83 270 233 0 126 -52
183 -224 246 -139 51 -182 119 -117 185 57 56 145 27 157 -52 l7 -39 78 0 79
0 0 28 c0 80 -52 161 -125 193 -47 21 -146 31 -195 20z"/>
<path d="M16412 8070 c-127 -27 -207 -140 -186 -265 15 -97 69 -147 218 -205
130 -50 163 -91 132 -164 -18 -43 -54 -60 -111 -52 -53 6 -85 43 -85 97 l0 39
-85 0 c-97 0 -96 2 -74 -101 26 -122 161 -188 325 -160 153 27 214 96 214 245
0 45 -6 69 -24 101 -31 52 -73 79 -203 134 -55 23 -109 51 -118 61 -9 10 -16
36 -17 61 -1 113 158 122 177 9 l7 -40 80 0 81 0 -7 52 c-9 64 -25 97 -70 136
-53 47 -167 70 -254 52z"/>
<path d="M17649 8070 c-131 -22 -199 -104 -199 -240 0 -107 49 -160 205 -225
122 -50 155 -77 155 -130 0 -50 -35 -86 -91 -92 -40 -5 -50 -2 -78 23 -24 21
-34 41 -38 72 l-6 42 -78 0 -79 0 0 -47 c0 -72 38 -145 92 -176 125 -73 320
-51 406 47 41 46 58 127 42 198 -20 95 -69 137 -229 199 -105 40 -131 64 -131
119 0 113 156 122 179 10 l7 -35 77 -3 77 -3 0 43 c-1 66 -31 123 -85 157 -42
26 -65 33 -155 45 -14 2 -46 0 -71 -4z"/>
<path d="M18335 8072 c-70 -7 -125 -33 -164 -79 -66 -74 -76 -119 -76 -338 l0
-190 32 -67 c25 -54 41 -74 79 -97 138 -88 347 -47 410 79 36 71 47 159 41
326 -5 168 -18 218 -72 281 -52 61 -153 96 -250 85z m102 -144 c34 -28 45 -80
50 -243 6 -181 -3 -232 -47 -277 -58 -58 -146 -23 -169 66 -14 57 -14 309 0
375 14 68 57 105 111 98 22 -3 46 -11 55 -19z"/>
<path d="M18993 8070 c-102 -21 -167 -84 -197 -191 -36 -129 -28 -379 15 -480
25 -58 60 -91 124 -120 58 -26 163 -31 233 -10 92 26 152 115 165 244 l6 57
-75 2 c-41 0 -80 1 -86 2 -8 1 -15 -19 -19 -54 -8 -66 -16 -88 -42 -117 -29
-32 -90 -31 -122 1 -39 39 -47 94 -43 286 4 194 13 227 67 250 68 28 122 -15
136 -106 l6 -44 86 0 85 0 -7 53 c-9 64 -39 138 -68 166 -53 49 -178 78 -264
61z"/>
<path d="M12330 7990 l0 -70 90 0 90 0 0 -325 0 -325 85 0 85 0 2 328 3 327
70 2 c39 1 78 2 88 2 14 1 17 11 17 66 l0 65 -265 0 -265 0 0 -70z"/>
<path d="M12960 7771 c0 -175 4 -311 11 -342 28 -131 187 -206 349 -165 79 21
121 52 151 113 23 47 24 56 27 366 l3 317 -85 0 -86 0 0 -295 c0 -314 -5 -351
-48 -374 -56 -30 -124 3 -142 67 -6 21 -11 161 -13 317 l-2 280 -82 3 -83 3 0
-290z"/>
<path d="M13640 7664 l0 -396 188 4 c178 3 189 4 232 28 108 61 145 169 138
398 -6 160 -27 231 -88 292 -59 59 -107 70 -302 70 l-168 0 0 -396z m345 234
c33 -38 49 -147 42 -284 -8 -178 -42 -227 -151 -222 l-61 3 -3 269 -2 268 76
-4 c68 -3 79 -6 99 -30z"/>
<path d="M14340 7665 l0 -395 240 0 240 0 0 65 0 65 -57 1 c-32 0 -101 0 -154
0 l-97 -1 -5 33 c-2 17 -4 63 -3 102 l1 70 138 3 138 3 -3 66 -3 67 -127 1
c-70 1 -129 3 -132 6 -3 2 -6 42 -7 89 l-2 85 144 0 144 0 3 68 3 67 -231 0
-230 0 0 -395z"/>
<path d="M14931 7665 l0 -395 80 0 79 0 2 264 3 263 105 -263 105 -263 93 -1
92 0 0 385 c0 212 1 388 3 393 1 4 -33 8 -75 10 l-78 3 0 -263 c0 -147 -4
-258 -9 -252 -4 5 -52 123 -107 262 l-98 252 -97 0 -98 0 0 -395z"/>
<path d="M15600 7995 l0 -65 90 0 90 0 0 -330 0 -330 85 0 85 0 2 328 3 327
90 0 90 0 3 68 3 67 -271 0 -270 0 0 -65z"/>
<path d="M16890 7970 l0 -90 30 0 c28 0 30 -2 24 -27 -8 -35 -31 -73 -44 -73
-6 0 -10 -18 -10 -40 0 -45 4 -46 58 -25 24 10 48 30 65 57 26 40 27 48 27
165 l0 123 -75 0 -75 0 0 -90z"/>
<path d="M19460 7665 l0 -395 85 0 85 0 0 395 0 395 -85 0 -85 0 0 -395z"/>
<path d="M19790 7665 l0 -395 240 0 240 0 0 65 0 65 -155 0 -155 0 0 105 0
105 140 0 141 0 -3 68 -3 67 -110 1 c-60 0 -122 1 -137 2 l-28 2 0 91 0 91
148 -4 147 -3 0 65 0 65 -232 3 -233 2 0 -395z"/>
<path d="M20340 7995 c0 -74 -12 -67 115 -69 l70 -1 2 -255 c1 -140 2 -288 2
-327 l1 -73 80 0 80 0 2 328 3 327 90 1 90 2 3 66 3 66 -271 0 -270 0 0 -65z"/>
<path d="M20945 8010 c14 -27 52 -110 85 -185 33 -74 73 -162 90 -195 29 -58
30 -63 30 -210 l0 -150 80 0 80 0 0 149 0 149 54 119 c29 65 79 171 110 237
31 65 56 122 56 127 0 5 -40 9 -89 9 l-89 0 -58 -150 c-33 -82 -61 -150 -64
-150 -3 0 -30 68 -60 150 l-55 150 -98 0 -97 0 25 -50z"/>
</g>
</svg>
